<svg width="69" height="71" viewBox="0 0 69 71" fill="none" xmlns="http://www.w3.org/2000/svg">
<rect width="69" height="69" fill="#786AF4"/>
<path d="M44.935 32.99V38.435C44.935 42.505 42.405 46.3 36.08 46.3C27.885 46.3 23.76 40.525 23.76 34.75C23.76 28.92 27.885 23.145 36.08 23.145C40.315 23.145 44.77 25.565 47.245 28.7L54.12 22.705C49.995 17.37 43.395 14.235 35.695 14.235C25.795 14.235 14.135 21.22 14.135 34.75C14.135 48.28 25.74 55.265 35.64 55.265C40.645 55.265 44.935 53.67 48.235 50.92L50.05 54H53.845V32.99H44.935ZM31.79 34.805C31.79 37.39 33.44 39.04 36.08 39.04C38.665 39.04 40.315 37.39 40.315 34.805C40.315 32.22 38.665 30.515 36.08 30.515C33.44 30.515 31.79 32.22 31.79 34.805Z" fill="white"/>
</svg>
