<svg width="101" height="16" viewBox="0 0 101 16" fill="none" xmlns="http://www.w3.org/2000/svg">
<path d="M11.34 7.36V9.34C11.34 10.82 10.42 12.2 8.12 12.2C5.14 12.2 3.64 10.1 3.64 8C3.64 5.88 5.14 3.78 8.12 3.78C9.66 3.78 11.28 4.66 12.18 5.8L14.68 3.62C13.18 1.68 10.78 0.539999 7.98 0.539999C4.38 0.539999 0.14 3.08 0.14 8C0.14 12.92 4.36 15.46 7.96 15.46C9.78 15.46 11.34 14.88 12.54 13.88L13.2 15H14.58V7.36H11.34ZM6.56 8.02C6.56 8.96 7.16 9.56 8.12 9.56C9.06 9.56 9.66 8.96 9.66 8.02C9.66 7.08 9.06 6.46 8.12 6.46C7.16 6.46 6.56 7.08 6.56 8.02ZM16.9016 9.28C16.9016 13.42 20.4416 15.5 23.9816 15.5C27.5216 15.5 31.0616 13.42 31.0616 9.28V0.999999H27.6816V9.28C27.6816 11.3 25.8416 12.32 23.9816 12.32C22.1216 12.32 20.2816 11.3 20.2816 9.28V0.999999H16.9016V9.28ZM33.8594 15H37.2394V5.36L45.3994 15.04L49.2194 15L37.2394 0.999999H33.8594V15ZM45.8394 7.48L49.2194 11.26V0.999999H45.8394V7.48ZM63.0392 7.36V9.34C63.0392 10.82 62.1192 12.2 59.8192 12.2C56.8392 12.2 55.3392 10.1 55.3392 8C55.3392 5.88 56.8392 3.78 59.8192 3.78C61.3592 3.78 62.9792 4.66 63.8792 5.8L66.3792 3.62C64.8792 1.68 62.4792 0.539999 59.6792 0.539999C56.0792 0.539999 51.8392 3.08 51.8392 8C51.8392 12.92 56.0592 15.46 59.6592 15.46C61.4792 15.46 63.0392 14.88 64.2392 13.88L64.8992 15H66.2792V7.36H63.0392ZM58.2592 8.02C58.2592 8.96 58.8592 9.56 59.8192 9.56C60.7592 9.56 61.3592 8.96 61.3592 8.02C61.3592 7.08 60.7592 6.46 59.8192 6.46C58.8592 6.46 58.2592 7.08 58.2592 8.02ZM68.6008 9.28C68.6008 13.42 72.1408 15.5 75.6808 15.5C79.2208 15.5 82.7608 13.42 82.7608 9.28V0.999999H79.3808V9.28C79.3808 11.3 77.5408 12.32 75.6808 12.32C73.8208 12.32 71.9808 11.3 71.9808 9.28V0.999999H68.6008V9.28ZM85.5586 15H88.9386V5.36L97.0986 15.04L100.919 15L88.9386 0.999999H85.5586V15ZM97.5386 7.48L100.919 11.26V0.999999H97.5386V7.48Z" fill="#786AF4"/>
</svg>
