<svg width="73" height="14" viewBox="0 0 73 14" fill="none" xmlns="http://www.w3.org/2000/svg">
<path d="M7.82 9.84C7.46 9.84 7.16667 9.73333 6.94 9.52C6.72667 9.29333 6.62 9 6.62 8.64V7.92C6.62 7.56 6.72667 7.27333 6.94 7.06C7.16667 6.83333 7.46 6.72 7.82 6.72H11.3C11.66 6.72 11.9467 6.83333 12.16 7.06C12.3867 7.27333 12.5 7.56 12.5 7.92V11.34C12.5 11.4867 12.46 11.6467 12.38 11.82C12.3133 11.98 12.22 12.1067 12.1 12.2C11.74 12.4667 11.3533 12.72 10.94 12.96C10.54 13.1867 10.1733 13.36 9.84 13.48C8.98667 13.8267 8.09333 14 7.16 14C6.30667 14 5.44 13.8267 4.56 13.48C3.70667 13.1867 2.93333 12.7067 2.24 12.04C1.57333 11.3467 1.07333 10.6133 0.74 9.84C0.38 9.05333 0.2 8.20667 0.2 7.3C0.2 6.36667 0.38 5.5 0.74 4.7C1.04667 3.95333 1.54667 3.23333 2.24 2.54C2.93333 1.87333 3.70667 1.37333 4.56 1.04C5.44 0.733333 6.32 0.58 7.2 0.58C8.08 0.58 8.94667 0.733333 9.8 1.04C10.24 1.21333 10.68 1.44667 11.12 1.74C11.4533 1.95333 11.62 2.23333 11.62 2.58C11.62 2.88667 11.48 3.17333 11.2 3.44L10.42 4.2C10.26 4.36 10.0733 4.44 9.86 4.44C9.67333 4.44 9.48667 4.38 9.3 4.26C9.07333 4.11333 8.84667 4 8.62 3.92C8.12667 3.73333 7.65333 3.64 7.2 3.64C6.70667 3.64 6.23333 3.73333 5.78 3.92C5.34 4.06667 4.92667 4.33333 4.54 4.72C4.14 5.06667 3.86667 5.45333 3.72 5.88C3.52 6.32 3.42 6.79333 3.42 7.3C3.42 7.76667 3.52 8.22 3.72 8.66C3.89333 9.11333 4.16667 9.50667 4.54 9.84C4.92667 10.2267 5.34 10.4933 5.78 10.64C6.23333 10.8267 6.70667 10.92 7.2 10.92C7.65333 10.92 8.12667 10.8267 8.62 10.64C9.07333 10.48 9.49333 10.2133 9.88 9.84H7.82ZM18.6153 14C19.362 13.9733 20.0553 13.8267 20.6953 13.56C21.3086 13.3067 21.8686 12.94 22.3753 12.46C22.842 11.9933 23.2153 11.4533 23.4953 10.84C23.762 10.1867 23.8886 9.53333 23.8753 8.88V1.78C23.8753 1.42 23.762 1.13333 23.5353 0.919999C23.322 0.693333 23.0353 0.58 22.6753 0.58H21.8553C21.4953 0.58 21.202 0.693333 20.9753 0.919999C20.762 1.13333 20.6553 1.42 20.6553 1.78V8.9C20.6553 9.19333 20.6086 9.45333 20.5153 9.68C20.4353 9.88 20.2886 10.0867 20.0753 10.3C19.8753 10.5 19.6553 10.6467 19.4153 10.74C19.162 10.86 18.8953 10.92 18.6153 10.92C18.042 10.92 17.5486 10.7333 17.1353 10.36C16.7086 9.96 16.4953 9.48667 16.4953 8.94V1.78C16.4953 1.42 16.382 1.13333 16.1553 0.919999C15.942 0.693333 15.6553 0.58 15.2953 0.58H14.4953C14.1353 0.58 13.842 0.693333 13.6153 0.919999C13.402 1.13333 13.2953 1.42 13.2953 1.78V8.96C13.2953 9.64 13.4353 10.2933 13.7153 10.92C13.9553 11.5067 14.342 12.0533 14.8753 12.56C15.3953 13.04 15.962 13.3933 16.5753 13.62C17.1753 13.8733 17.842 14 18.5753 14H18.6153ZM33.9319 0.6C33.5719 0.6 33.2785 0.713333 33.0519 0.939999C32.8385 1.15333 32.7319 1.44 32.7319 1.8V8.44L28.5319 1.24C28.4385 1.06667 28.2919 0.926666 28.0919 0.819999C27.9052 0.699999 27.7119 0.639999 27.5119 0.639999H25.8719C25.5119 0.639999 25.2185 0.753333 24.9919 0.98C24.7785 1.19333 24.6719 1.48 24.6719 1.84V12.8C24.6719 13.16 24.7785 13.4533 24.9919 13.68C25.2185 13.8933 25.5119 14 25.8719 14H26.6919C27.0519 14 27.3385 13.8933 27.5519 13.68C27.7785 13.4533 27.8919 13.16 27.8919 12.8V6.18L32.1119 13.4C32.2052 13.5733 32.3452 13.72 32.5319 13.84C32.7319 13.9467 32.9319 14 33.1319 14H34.7319C35.0919 14 35.3785 13.8933 35.5919 13.68C35.8185 13.4533 35.9319 13.16 35.9319 12.8V1.8C35.9319 1.44 35.8185 1.15333 35.5919 0.939999C35.3785 0.713333 35.0919 0.6 34.7319 0.6H33.9319ZM44.352 9.84C43.992 9.84 43.6987 9.73333 43.472 9.52C43.2587 9.29333 43.152 9 43.152 8.64V7.92C43.152 7.56 43.2587 7.27333 43.472 7.06C43.6987 6.83333 43.992 6.72 44.352 6.72H47.832C48.192 6.72 48.4787 6.83333 48.692 7.06C48.9187 7.27333 49.032 7.56 49.032 7.92V11.34C49.032 11.4867 48.992 11.6467 48.912 11.82C48.8454 11.98 48.752 12.1067 48.632 12.2C48.272 12.4667 47.8854 12.72 47.472 12.96C47.072 13.1867 46.7054 13.36 46.372 13.48C45.5187 13.8267 44.6254 14 43.692 14C42.8387 14 41.972 13.8267 41.092 13.48C40.2387 13.1867 39.4654 12.7067 38.772 12.04C38.1054 11.3467 37.6054 10.6133 37.272 9.84C36.912 9.05333 36.732 8.20667 36.732 7.3C36.732 6.36667 36.912 5.5 37.272 4.7C37.5787 3.95333 38.0787 3.23333 38.772 2.54C39.4654 1.87333 40.2387 1.37333 41.092 1.04C41.972 0.733333 42.852 0.58 43.732 0.58C44.612 0.58 45.4787 0.733333 46.332 1.04C46.772 1.21333 47.212 1.44667 47.652 1.74C47.9854 1.95333 48.152 2.23333 48.152 2.58C48.152 2.88667 48.012 3.17333 47.732 3.44L46.952 4.2C46.792 4.36 46.6054 4.44 46.392 4.44C46.2054 4.44 46.0187 4.38 45.832 4.26C45.6054 4.11333 45.3787 4 45.152 3.92C44.6587 3.73333 44.1854 3.64 43.732 3.64C43.2387 3.64 42.7654 3.73333 42.312 3.92C41.872 4.06667 41.4587 4.33333 41.072 4.72C40.672 5.06667 40.3987 5.45333 40.252 5.88C40.052 6.32 39.952 6.79333 39.952 7.3C39.952 7.76667 40.052 8.22 40.252 8.66C40.4254 9.11333 40.6987 9.50667 41.072 9.84C41.4587 10.2267 41.872 10.4933 42.312 10.64C42.7654 10.8267 43.2387 10.92 43.732 10.92C44.1854 10.92 44.6587 10.8267 45.152 10.64C45.6054 10.48 46.0254 10.2133 46.412 9.84H44.352ZM55.1473 14C55.894 13.9733 56.5873 13.8267 57.2273 13.56C57.8407 13.3067 58.4007 12.94 58.9073 12.46C59.374 11.9933 59.7473 11.4533 60.0273 10.84C60.294 10.1867 60.4207 9.53333 60.4073 8.88V1.78C60.4073 1.42 60.294 1.13333 60.0673 0.919999C59.854 0.693333 59.5673 0.58 59.2073 0.58H58.3873C58.0273 0.58 57.734 0.693333 57.5073 0.919999C57.294 1.13333 57.1873 1.42 57.1873 1.78V8.9C57.1873 9.19333 57.1407 9.45333 57.0473 9.68C56.9673 9.88 56.8207 10.0867 56.6073 10.3C56.4073 10.5 56.1873 10.6467 55.9473 10.74C55.694 10.86 55.4273 10.92 55.1473 10.92C54.574 10.92 54.0807 10.7333 53.6673 10.36C53.2407 9.96 53.0273 9.48667 53.0273 8.94V1.78C53.0273 1.42 52.914 1.13333 52.6873 0.919999C52.474 0.693333 52.1873 0.58 51.8273 0.58H51.0273C50.6673 0.58 50.374 0.693333 50.1473 0.919999C49.934 1.13333 49.8273 1.42 49.8273 1.78V8.96C49.8273 9.64 49.9673 10.2933 50.2473 10.92C50.4873 11.5067 50.874 12.0533 51.4073 12.56C51.9273 13.04 52.494 13.3933 53.1073 13.62C53.7073 13.8733 54.374 14 55.1073 14H55.1473ZM70.4639 0.6C70.1039 0.6 69.8106 0.713333 69.5839 0.939999C69.3706 1.15333 69.2639 1.44 69.2639 1.8V8.44L65.0639 1.24C64.9706 1.06667 64.8239 0.926666 64.6239 0.819999C64.4372 0.699999 64.2439 0.639999 64.0439 0.639999H62.4039C62.0439 0.639999 61.7506 0.753333 61.5239 0.98C61.3106 1.19333 61.2039 1.48 61.2039 1.84V12.8C61.2039 13.16 61.3106 13.4533 61.5239 13.68C61.7506 13.8933 62.0439 14 62.4039 14H63.2239C63.5839 14 63.8706 13.8933 64.0839 13.68C64.3106 13.4533 64.4239 13.16 64.4239 12.8V6.18L68.6439 13.4C68.7372 13.5733 68.8772 13.72 69.0639 13.84C69.2639 13.9467 69.4639 14 69.6639 14H71.2639C71.6239 14 71.9106 13.8933 72.1239 13.68C72.3506 13.4533 72.4639 13.16 72.4639 12.8V1.8C72.4639 1.44 72.3506 1.15333 72.1239 0.939999C71.9106 0.713333 71.6239 0.6 71.2639 0.6H70.4639Z" fill="#786AF4"/>
</svg>
